<svg width="54" height="50" viewBox="0 0 54 50" fill="none" xmlns="http://www.w3.org/2000/svg">
<path d="M50.0449 0H3.95508C1.7742 0 0 1.7742 0 3.95508V35.5957C0 37.7766 1.7742 39.5508 3.95508 39.5508H19.8809V40.3418C19.8809 42.5227 18.1067 44.2969 15.9258 44.2969H8.70117C6.52029 44.2969 4.74609 46.0711 4.74609 48.252C4.74609 48.6889 5.10026 49.043 5.53711 49.043H48.4629C48.8997 49.043 49.2539 48.6889 49.2539 48.252C49.2539 46.0711 47.4797 44.2969 45.2988 44.2969H38.0742C35.8933 44.2969 34.1191 42.5227 34.1191 40.3418V39.5508H50.0449C52.2258 39.5508 54 37.7766 54 35.5957V3.95508C54 1.7742 52.2258 0 50.0449 0ZM3.95508 1.58203H50.0449C51.3535 1.58203 52.418 2.64663 52.418 3.95508V31.6406H1.58203V3.95508C1.58203 2.64663 2.64653 1.58203 3.95508 1.58203ZM34.2044 44.2969H28.582C28.1452 44.2969 27.791 44.6509 27.791 45.0879C27.791 45.5248 28.1452 45.8789 28.582 45.8789H45.2988C46.3301 45.8789 47.2099 46.5402 47.5363 47.4609H6.46365C6.79008 46.5402 7.6699 45.8789 8.70117 45.8789H25.418C25.8548 45.8789 26.209 45.5248 26.209 45.0879C26.209 44.6509 25.8548 44.2969 25.418 44.2969H19.7956C20.8234 43.291 21.4629 41.89 21.4629 40.3418V39.5508H32.5371V40.3418C32.5371 41.89 33.1766 43.291 34.2044 44.2969ZM50.0449 37.9688H3.95508C2.64653 37.9688 1.58203 36.9041 1.58203 35.5957V33.2227H52.418V35.5957C52.418 36.9041 51.3535 37.9688 50.0449 37.9688Z" fill="black"/>
</svg>
