<svg width="40" height="40" viewBox="0 0 40 40" fill="none" xmlns="http://www.w3.org/2000/svg">
<g clip-path="url(#clip0_1_107181)">
<path d="M0 20C0 8.973 8.973 0 20 0C31.027 0 40 8.973 40 20C40 31.027 31.027 40 20 40C8.973 40 0 31.027 0 20ZM21.477 28.796L27.756 23.464C28.287 23.014 28.561 22.37 28.561 21.725C28.561 21.204 28.382 20.678 28.018 20.248C27.205 19.288 25.764 19.17 24.803 19.985L22.282 22.127V12.941C22.282 11.681 21.261 10.66 20.001 10.66C18.741 10.66 17.72 11.681 17.72 12.941V22.127L15.199 19.985C14.238 19.17 12.799 19.288 11.982 20.248C11.167 21.208 11.285 22.648 12.246 23.464L18.525 28.796C19.375 29.52 20.625 29.52 21.477 28.796Z" fill="black"/>
</g>
<defs>
<clipPath id="clip0_1_107181">
<rect width="40" height="40" fill="white"/>
</clipPath>
</defs>
</svg>
