<svg width="28" height="28" viewBox="0 0 28 28" fill="none" xmlns="http://www.w3.org/2000/svg">
<g clip-path="url(#clip0_81_5569)">
<path d="M21.3947 5.00684C21.0325 5.00684 20.7378 5.30156 20.7378 5.66372C20.7378 6.02588 21.0325 6.32061 21.3947 6.32061C21.7569 6.32061 22.0516 6.02594 22.0516 5.66372C22.0516 5.30151 21.7569 5.00684 21.3947 5.00684Z" fill="black"/>
<path d="M13.5281 9.01953C11.0414 9.01953 9.01836 11.0426 9.01836 13.5293C9.01836 16.016 11.0414 18.0391 13.5281 18.0391C16.0149 18.0391 18.0379 16.016 18.0379 13.5293C18.0379 11.0427 16.0149 9.01953 13.5281 9.01953Z" fill="black"/>
<path d="M19.6402 0H7.41744C3.32745 0 0 3.32746 0 7.41749V19.6402C0 23.7302 3.32745 27.0576 7.41744 27.0576H19.6402C23.7302 27.0576 27.0576 23.7302 27.0576 19.6402V7.41749C27.0576 3.32746 23.7302 0 19.6402 0ZM13.5288 20.9502C9.43661 20.9502 6.10747 17.621 6.10747 13.5288C6.10747 9.43661 9.43667 6.10752 13.5288 6.10752C17.621 6.10752 20.9502 9.43667 20.9502 13.5288C20.9502 17.621 17.621 20.9502 13.5288 20.9502ZM21.3941 7.91837C20.1508 7.91837 19.1393 6.90688 19.1393 5.66361C19.1393 4.42033 20.1508 3.40879 21.3941 3.40879C22.6374 3.40879 23.6488 4.42028 23.6488 5.66355C23.6488 6.90683 22.6374 7.91837 21.3941 7.91837Z" fill="black"/>
</g>
<defs>
<clipPath id="clip0_81_5569">
<rect width="27.0576" height="27.0576" fill="white"/>
</clipPath>
</defs>
</svg>
